<svg width="1162" height="300" viewBox="0 0 1162 300" fill="none" xmlns="http://www.w3.org/2000/svg">
<path d="M2.26498e-06 0H160L201.6 44V132L160 176L202.8 268H223.6V300H148.4V268H164L121.2 176H64.8V268H88.8V300H2.26498e-06V268H28V32H2.26498e-06V0ZM144 141.6L167.2 118V58L144.4 34.4H64.8V141.6H144ZM321.288 300L279.688 256V44L321.288 0H434.088L475.688 44V256L434.088 300H321.288ZM336.888 265.6H418.088L438.888 244.4V55.6L418.488 34.4H337.288L316.488 55.6V244.4L336.888 265.6ZM683.044 184.8L663.844 165.2H580.644L539.844 122.4V44L581.444 0H674.244L715.844 44V94.4H682.644V59.2L658.644 34.4H597.444L576.644 55.6V110.8L596.244 130.8H679.444L719.844 173.2V256L678.244 300H577.444L535.844 256V205.6H569.044V240.8L593.444 265.6H662.644L683.044 244.4V184.8ZM775.688 268H807.688V32H775.688V0H876.488V32H844.488V268H876.488V300H775.688V268ZM982.328 0H1089.13V32H1070.73L1141.13 268H1161.13V300H1076.33V268H1104.33L1085.93 206.4H985.528L967.128 268H995.128V300H910.328V268H930.328L1000.73 32H982.328V0ZM1035.53 38L995.128 174.4H1076.33L1035.53 38Z" fill="#3089CA"/>
</svg>
